<?xml version="1.0" encoding="UTF-8" standalone="no"?>
<svg
   width="801.00995"
   height="801.01001"
   viewBox="0 0 801.00995 801.01001"
   version="1.1"
   xml:space="preserve"
   style="clip-rule:evenodd;fill-rule:evenodd;stroke-linejoin:round;stroke-miterlimit:2"
   id="svg62"
   xmlns="http://www.w3.org/2000/svg"
   xmlns:svg="http://www.w3.org/2000/svg"
   xmlns:rdf="http://www.w3.org/1999/02/22-rdf-syntax-ns#"
   xmlns:cc="http://creativecommons.org/ns#"
   xmlns:dc="http://purl.org/dc/elements/1.1/"
   xmlns:serif="http://www.serif.com/"><metadata
     id="metadata66"><rdf:RDF><cc:Work
         rdf:about=""><dc:format>image/svg+xml</dc:format><dc:type
           rdf:resource="http://purl.org/dc/dcmitype/StillImage" /></cc:Work></rdf:RDF></metadata><g
     transform="translate(-295.23101,-2608.635)"
     id="g53"><g
       id="Bot-a"
       serif:id="Bot a"
       transform="matrix(0.93082,0,0,0.93082,173.565,1585.25)"><rect
         x="131.25101"
         y="1099.98"
         width="856.10303"
         height="856.10303"
         style="fill:none"
         id="rect2" /><g
         transform="matrix(0.266067,0,0,0.266067,-121.83,733.315)"
         id="g50"><rect
           style="fill:#000000;fill-opacity:1;stroke:#ffffff;stroke-width:20.1889;stroke-linejoin:round;stroke-dasharray:none;stroke-opacity:1"
           id="rect4"
           width="3214.1177"
           height="3214.1179"
           x="959.24792"
           y="1386.1748"
           ry="449.50665" /><g
           transform="matrix(0.66102151,0,0,0.60784759,1271.8523,933.51941)"
           id="g48"
           style="clip-rule:evenodd;fill-rule:evenodd;stroke-width:20.8777;stroke-linejoin:round;stroke-miterlimit:2;stroke-dasharray:none"><g
             transform="matrix(0.801855,0,0,0.801855,507.252,682.248)"
             id="g12"
             style="stroke-width:26.0368;stroke-linejoin:round;stroke-dasharray:none"><path
               d="m 3512.23,2829.77 c 0,-525.55 -426.68,-952.23 -952.23,-952.23 -525.55,0 -952.23,426.68 -952.23,952.23 v 700.71 c 0,262.77 213.34,476.11 476.12,476.11 h 952.22 c 262.78,0 476.12,-213.34 476.12,-476.11 z m -241.09,-9.05 c 0,-371.39 -301.51,-672.91 -672.9,-672.91 h -76.48 c -371.39,0 -672.9,301.52 -672.9,672.91 v 48.06 c 0,132.64 107.68,240.32 240.32,240.32 h 941.64 c 132.64,0 240.32,-107.68 240.32,-240.32 z"
               style="fill:#fafafa;stroke-width:26.0368;stroke-linejoin:round;stroke-dasharray:none"
               id="path10" /></g><g
             transform="translate(0,107.758)"
             id="g24"
             style="stroke-width:20.8777;stroke-linejoin:round;stroke-dasharray:none"><circle
               cx="2220.3101"
               cy="2784.1799"
               r="139.495"
               style="fill:#fafafa;stroke-width:20.8777;stroke-linejoin:round;stroke-dasharray:none"
               id="circle22" /></g><g
             transform="translate(0,107.758)"
             id="g28"
             style="stroke-width:20.8777;stroke-linejoin:round;stroke-dasharray:none"><circle
               cx="2220.3101"
               cy="2784.1799"
               r="139.495"
               style="fill:#fafafa;stroke-width:20.8777;stroke-linejoin:round;stroke-dasharray:none"
               id="circle26" /></g><g
             transform="translate(695.793,107.758)"
             id="g32"
             style="stroke-width:20.8777;stroke-linejoin:round;stroke-dasharray:none"><circle
               cx="2220.3101"
               cy="2784.1799"
               r="139.495"
               style="fill:#fafafa;stroke-width:20.8777;stroke-linejoin:round;stroke-dasharray:none"
               id="circle30" /></g></g></g></g></g><defs
     id="defs60" /><path
     style="font-size:500px;font-family:'Cherry Bomb One';-inkscape-font-specification:'Cherry Bomb One';fill:#ffffff;stroke-width:0.852332"
     d="m 129.76303,555.51059 q -17.47622,0 -28.51382,-14.1335 -11.037612,-14.1335 -11.037612,-32.07217 0,-12.50271 6.438607,-25.00542 6.898505,-12.50271 21.155415,-21.20025 29.89352,-17.93867 60.70684,-35.87734 30.81331,-18.48227 59.32713,-35.33374 -29.89352,-17.93868 -60.24693,-35.33375 -29.89352,-17.93867 -59.78704,-35.87734 -14.25691,-8.69754 -21.155415,-21.20025 -6.898507,-13.04631 -6.898507,-26.09261 0,-17.39508 10.577712,-30.98498 11.0376,-14.1335 29.43362,-14.1335 11.9574,0 28.05391,8.15394 16.55641,7.61035 33.11282,17.93867 17.01631,10.32833 28.97372,17.93867 37.25192,23.37464 62.54644,40.76971 25.29452,16.85148 38.17172,34.79015 12.87721,17.93867 12.87721,44.03129 0,25.54901 -12.87721,44.03128 -12.8772,17.93867 -38.17172,35.33375 -25.29452,16.85148 -62.54644,40.22611 -11.95741,7.61034 -28.97372,17.93867 -16.55641,10.32832 -33.11282,18.48227 -16.09651,7.61034 -28.05391,7.61034 z"
     id="text1"
     aria-label="&gt;" /><path
     d="m 498.14048,608.84096 q -58.8,0 -97.3,-1.4 -37.8,-1.4 -56,-11.2 -18.2,-9.8 -18.2,-33.6 0,-24.5 18.2,-34.3 18.2,-9.1 56,-10.5 38.5,-1.4 97.3,-1.4 58.8,0 96.6,1.4 38.5,1.4 56.7,10.5 18.2,9.8 18.2,34.3 0,23.8 -18.2,33.6 -18.2,9.8 -56.7,11.2 -37.8,1.4 -96.6,1.4 z"
     id="text7"
     style="font-size:700px;font-family:'Cherry Bomb One';-inkscape-font-specification:'Cherry Bomb One';fill:#ffffff;stroke-width:1.00157"
     aria-label="_" /></svg>
