<?xml version="1.0" encoding="UTF-8" standalone="no"?>
<svg
   width="1914.9467"
   height="801.01001"
   viewBox="0 0 1914.9467 801.01001"
   version="1.1"
   xml:space="preserve"
   style="clip-rule:evenodd;fill-rule:evenodd;stroke-linejoin:round;stroke-miterlimit:2"
   id="svg62"
   sodipodi:docname="logo.svg"
   inkscape:version="1.4 (e7c3feb100, 2024-10-09)"
   xmlns:inkscape="http://www.inkscape.org/namespaces/inkscape"
   xmlns:sodipodi="http://sodipodi.sourceforge.net/DTD/sodipodi-0.dtd"
   xmlns="http://www.w3.org/2000/svg"
   xmlns:svg="http://www.w3.org/2000/svg"
   xmlns:rdf="http://www.w3.org/1999/02/22-rdf-syntax-ns#"
   xmlns:cc="http://creativecommons.org/ns#"
   xmlns:dc="http://purl.org/dc/elements/1.1/"
   xmlns:serif="http://www.serif.com/"><sodipodi:namedview
     id="namedview1"
     pagecolor="#ffffff"
     bordercolor="#000000"
     borderopacity="0.25"
     inkscape:showpageshadow="2"
     inkscape:pageopacity="0.0"
     inkscape:pagecheckerboard="true"
     inkscape:deskcolor="#d1d1d1"
     inkscape:zoom="0.15303629"
     inkscape:cx="290.7807"
     inkscape:cy="88.214371"
     inkscape:window-width="1920"
     inkscape:window-height="1003"
     inkscape:window-x="0"
     inkscape:window-y="0"
     inkscape:window-maximized="1"
     inkscape:current-layer="svg62" /><metadata
     id="metadata66"><rdf:RDF><cc:Work
         rdf:about=""><dc:format>image/svg+xml</dc:format><dc:type
           rdf:resource="http://purl.org/dc/dcmitype/StillImage" /></cc:Work></rdf:RDF></metadata><g
     transform="translate(-295.23101,-2608.635)"
     id="g53"><g
       id="Bot-a"
       serif:id="Bot a"
       transform="matrix(0.93082,0,0,0.93082,173.565,1585.25)"><rect
         x="131.25101"
         y="1099.98"
         width="856.10303"
         height="856.10303"
         style="fill:none"
         id="rect2" /><g
         transform="matrix(0.266067,0,0,0.266067,-121.83,733.315)"
         id="g50"><rect
           style="fill:#000000;fill-opacity:1;stroke:#ffffff;stroke-width:20.18892922;stroke-linejoin:round;stroke-dasharray:none;stroke-opacity:1"
           id="rect4"
           width="3214.1177"
           height="3214.1179"
           x="959.24792"
           y="1386.1748"
           ry="449.50665" /><g
           transform="matrix(0.66102151,0,0,0.60784759,1271.8523,933.51941)"
           id="g48"
           style="clip-rule:evenodd;fill-rule:evenodd;stroke-width:20.8777;stroke-linejoin:round;stroke-miterlimit:2;stroke-dasharray:none"><g
             transform="matrix(0.801855,0,0,0.801855,507.252,682.248)"
             id="g12"
             style="stroke-width:26.0368;stroke-linejoin:round;stroke-dasharray:none"><path
               d="m 3512.23,2829.77 c 0,-525.55 -426.68,-952.23 -952.23,-952.23 -525.55,0 -952.23,426.68 -952.23,952.23 v 700.71 c 0,262.77 213.34,476.11 476.12,476.11 h 952.22 c 262.78,0 476.12,-213.34 476.12,-476.11 z m -241.09,-9.05 c 0,-371.39 -301.51,-672.91 -672.9,-672.91 h -76.48 c -371.39,0 -672.9,301.52 -672.9,672.91 v 48.06 c 0,132.64 107.68,240.32 240.32,240.32 h 941.64 c 132.64,0 240.32,-107.68 240.32,-240.32 z"
               style="fill:#ffffff;stroke-width:26.0368;stroke-linejoin:round;stroke-dasharray:none;fill-opacity:1"
               id="path10" /></g><g
             transform="translate(0,107.758)"
             id="g24"
             style="stroke-width:20.8777;stroke-linejoin:round;stroke-dasharray:none"><circle
               cx="2220.3101"
               cy="2784.1799"
               r="139.495"
               style="fill:#fafafa;stroke-width:20.8777;stroke-linejoin:round;stroke-dasharray:none"
               id="circle22" /></g><g
             transform="translate(0,107.758)"
             id="g28"
             style="stroke-width:20.8777;stroke-linejoin:round;stroke-dasharray:none"><circle
               cx="2220.3101"
               cy="2784.1799"
               r="139.495"
               style="fill:#ffffff;stroke-width:20.8777;stroke-linejoin:round;stroke-dasharray:none;fill-opacity:1"
               id="circle26" /></g><g
             transform="translate(695.793,107.758)"
             id="g32"
             style="stroke-width:20.8777;stroke-linejoin:round;stroke-dasharray:none"><circle
               cx="2220.3101"
               cy="2784.1799"
               r="139.495"
               style="fill:#ffffff;stroke-width:20.8777;stroke-linejoin:round;stroke-dasharray:none;fill-opacity:1"
               id="circle30" /></g></g><path
           d="m 4792.1188,2482.5762 q -77.6867,0 -134.377,-36.7437 -55.6405,-36.7437 -86.0852,-95.5336 -29.395,-58.79 -29.395,-122.829 0,-81.8859 32.5444,-134.3769 33.5943,-52.491 85.0354,-77.6867 51.4412,-26.2455 107.0817,-26.2455 26.2455,0 53.5408,6.2989 27.2953,5.2491 51.4412,18.8968 -4.1993,-45.1423 -18.8968,-88.1849 -13.6476,-44.0924 -13.6476,-89.2347 0,-46.1921 28.3451,-68.2383 28.3451,-22.0462 60.8896,-22.0462 37.7935,0 65.0888,24.1458 27.2953,24.1459 46.1921,64.0391 19.9465,39.8931 31.4946,90.2845 11.548,49.3415 16.7971,101.8325 5.2491,52.491 5.2491,100.7827 0,15.7473 -2.0997,48.2917 -1.0498,32.5445 -9.4483,72.4376 -8.3986,39.8932 -27.2954,80.8362 -17.8469,40.9429 -51.4411,75.587 -32.5444,34.6441 -83.9856,56.6903 -51.4412,20.9964 -127.0282,20.9964 z m 6.2989,-165.8716 q 28.3451,0 49.3415,-20.9964 20.9964,-22.0462 20.9964,-51.4412 0,-29.3949 -20.9964,-51.4411 -20.9964,-22.0463 -49.3415,-22.0463 -28.3452,0 -50.3914,22.0463 -20.9964,22.0462 -20.9964,51.4411 0,29.395 20.9964,51.4412 22.0462,20.9964 50.3914,20.9964 z m 589.9991,165.8716 q -78.7365,0 -138.5762,-30.4448 -58.7899,-31.4946 -92.3842,-85.0354 -32.5444,-54.5907 -32.5444,-124.9286 0,-68.2383 32.5444,-125.9784 33.5943,-57.7401 91.3344,-92.3841 58.7899,-34.6441 134.3769,-34.6441 70.3379,0 120.7293,28.3451 50.3914,28.3452 76.6369,72.4376 27.2953,43.0426 27.2953,91.3343 0,48.2918 -22.0462,79.7864 -22.0463,30.4447 -57.7401,47.2419 -34.6441,15.7473 -74.5373,20.9964 -39.8931,5.2491 -76.6368,2.0996 -36.7437,-4.1993 -61.9394,-12.5978 18.8968,30.4447 47.2419,41.9928 29.395,10.4982 60.8896,9.4483 32.5444,-2.0996 58.7899,-7.3487 32.5444,-7.3487 53.5408,3.1495 20.9964,10.4982 22.0462,33.5942 1.0498,18.8968 -13.6476,37.7935 -13.6477,18.8968 -50.3914,32.5444 -36.7437,12.5979 -104.982,12.5979 z m -70.3379,-291.85 q 10.4982,16.7971 30.4448,24.1459 19.9465,6.2989 39.8931,4.1993 20.9964,-2.0997 34.6441,-11.5481 14.6974,-9.4483 14.6974,-26.2455 0,-17.8469 -14.6974,-31.4946 -13.6477,-14.6974 -44.0925,-14.6974 -29.3949,0 -45.1422,18.8967 -15.7473,17.847 -15.7473,36.7437 z m 465.0705,289.7503 q -53.5408,0 -79.7863,-39.8931 -26.2455,-40.943 -34.6441,-121.7791 -8.3986,-81.886 -8.3986,-204.7149 0,-80.8362 2.0997,-148.0246 3.1494,-67.1885 14.6975,-115.4802 11.548,-49.3416 36.7437,-75.5871 25.1956,-27.2953 70.3379,-27.2953 45.1423,0 70.3379,27.2953 25.1957,26.2455 36.7437,75.5871 11.5481,48.2917 13.6477,115.4802 3.1495,67.1884 3.1495,148.0246 0,184.7683 -26.2455,276.1026 -25.1957,90.2845 -98.6831,90.2845 z m 515.461,2.0997 q -36.7437,0 -74.5372,-14.6975 -37.7936,-14.6975 -68.2383,-43.0426 -29.395,-28.3452 -43.0427,-68.2383 -9.4483,-26.2455 -13.6476,-65.0889 -4.1993,-38.8433 -6.2989,-82.9357 -1.0499,-44.0925 -1.0499,-86.0853 -40.9429,-1.0498 -78.7365,-7.3487 -36.7437,-6.2989 -60.8895,-23.096 -23.0961,-17.847 -23.0961,-51.4412 0,-40.943 22.0463,-60.8896 22.0462,-20.9964 58.7899,-27.2953 37.7935,-7.3487 81.8859,-8.3986 1.0499,-32.5444 5.2491,-66.1386 5.2491,-34.6441 16.7972,-64.039 11.548,-29.395 32.5444,-47.2419 20.9964,-18.8968 54.5906,-18.8968 45.1423,0 65.0888,28.3451 20.9964,28.3452 26.2455,73.4874 5.2491,45.1423 4.1993,94.4838 54.5907,-1.0498 96.5835,4.1993 41.9928,5.2491 66.1386,23.0961 24.1459,17.8469 24.1459,56.6902 0,39.8932 -27.2953,59.8398 -27.2954,19.9466 -71.3878,27.2953 -44.0924,6.2989 -93.434,7.3487 0,19.9466 -1.0498,41.9928 0,20.9964 0,43.0426 0,59.8398 8.3986,85.0355 6.2989,18.8967 16.7971,24.1458 11.548,5.2491 28.3451,6.2989 16.7971,0 40.943,6.299 24.1459,5.2491 37.7935,26.2455 13.6477,19.9465 13.6477,51.4411 0,35.6939 -37.7935,55.6405 -36.7437,19.9466 -99.7329,19.9466 z m 384.2333,0 q -51.4412,0 -94.4838,-15.7473 -41.9928,-15.7473 -67.1885,-47.2419 -25.1956,-32.5444 -25.1956,-81.886 0,-41.9928 25.1956,-71.3877 25.1957,-29.395 67.1885,-45.1423 43.0426,-15.7473 94.4838,-15.7473 30.4448,0 55.6405,5.2491 25.1956,4.1993 34.644,10.4982 0,-24.1459 -19.9466,-41.9928 -19.9465,-18.8968 -69.2881,-18.8968 -23.096,0 -36.7437,4.1993 -12.5978,3.1495 -23.096,8.3986 -10.4982,5.2491 -24.1459,9.4484 -12.5978,3.1494 -34.644,3.1494 -32.5444,0 -52.491,-16.7971 -18.8968,-17.8469 -18.8968,-53.5408 0,-32.5444 17.847,-55.6405 18.8967,-24.1458 48.2917,-39.8931 29.3949,-15.7473 62.9892,-23.0961 34.644,-7.3487 66.1386,-7.3487 93.434,0 152.2239,34.6441 58.7899,33.5942 87.1351,88.1848 28.3451,54.5907 28.3451,118.6297 0,35.6939 -6.2989,66.1386 -5.2491,30.4448 -14.6975,47.2419 14.6975,12.5979 22.0462,29.395 8.3986,16.7971 8.3986,34.6441 0,29.3949 -19.9466,52.491 -18.8967,22.0462 -54.5906,22.0462 -27.2953,0 -43.0426,-8.3986 -15.7473,-8.3985 -31.4946,-22.0462 -25.1957,14.6975 -55.6405,23.096 -30.4448,7.3488 -78.7365,7.3488 z m 20.9964,-106.0318 q 24.1459,0 35.6939,-9.4484 12.5978,-10.4982 12.5978,-23.0961 0,-12.5978 -12.5978,-22.0462 -11.548,-10.4982 -35.6939,-10.4982 -23.096,0 -35.6939,10.4982 -12.5978,9.4484 -12.5978,22.0462 0,12.5979 12.5978,23.0961 12.5979,9.4484 35.6939,9.4484 z m 616.2443,106.0318 q -75.5871,0 -127.0283,-20.9964 -51.4411,-22.0462 -85.0354,-56.6903 -32.5444,-34.6441 -51.4412,-75.587 -17.8469,-40.943 -26.2455,-80.8362 -8.3985,-39.8931 -10.4982,-72.4376 -1.0498,-32.5444 -1.0498,-48.2917 0,-48.2917 5.2491,-100.7827 5.2491,-52.491 16.7971,-101.8325 11.5481,-50.3914 30.4448,-90.2845 19.9466,-39.8932 47.2419,-64.0391 27.2953,-24.1458 65.0889,-24.1458 33.5942,0 60.8895,22.0462 28.3452,22.0462 28.3452,68.2383 0,45.1423 -14.6975,89.2347 -13.6477,43.0426 -17.847,88.1849 24.1459,-13.6477 51.4412,-18.8968 27.2953,-6.2989 53.5408,-6.2989 55.6405,0 107.0817,26.2455 51.4411,25.1957 83.9856,77.6867 33.5942,52.491 33.5942,134.3769 0,64.039 -30.4448,122.829 -29.3949,58.7899 -86.0852,95.5336 -55.6405,36.7437 -133.3271,36.7437 z m -6.299,-165.8716 q 28.3452,0 49.3416,-20.9964 22.0462,-22.0462 22.0462,-51.4412 0,-29.3949 -22.0462,-51.4411 -20.9964,-22.0463 -49.3416,-22.0463 -28.3451,0 -49.3415,22.0463 -20.9964,22.0462 -20.9964,51.4411 0,29.395 20.9964,51.4412 20.9964,20.9964 49.3415,20.9964 z m 550.106,166.9214 q -77.6867,1.0498 -136.4766,-31.4946 -57.7401,-33.5942 -91.3343,-90.2845 -32.5444,-57.7401 -34.6441,-127.0282 -1.0498,-71.3878 32.5444,-125.9784 33.5943,-55.6405 93.434,-88.1849 59.8397,-32.5444 136.4766,-32.5444 75.587,-1.0498 133.3271,31.4946 58.79,32.5444 93.434,88.1849 34.6441,55.6404 36.7437,127.0282 1.0498,68.2383 -32.5444,124.9285 -33.5942,55.6405 -93.434,89.2347 -59.8397,32.5445 -137.5264,34.6441 z m 3.1495,-153.2737 q 28.3451,0 49.3415,-22.0462 20.9964,-22.0463 20.9964,-51.4412 0,-29.395 -20.9964,-50.3914 -20.9964,-22.0462 -49.3415,-22.0462 -28.3452,0 -49.3416,22.0462 -20.9964,20.9964 -20.9964,50.3914 0,29.3949 20.9964,51.4412 20.9964,22.0462 49.3416,22.0462 z m 619.3939,152.2239 q -36.7437,0 -74.5372,-14.6975 -37.7935,-14.6975 -68.2383,-43.0426 -29.3949,-28.3452 -43.0426,-68.2383 -9.4484,-26.2455 -13.6477,-65.0889 -4.1992,-38.8433 -6.2989,-82.9357 -1.0498,-44.0925 -1.0498,-86.0853 -40.943,-1.0498 -78.7365,-7.3487 -36.7437,-6.2989 -60.8896,-23.096 -23.096,-17.847 -23.096,-51.4412 0,-40.943 22.0462,-60.8896 22.0462,-20.9964 58.7899,-27.2953 37.7936,-7.3487 81.886,-8.3986 1.0498,-32.5444 5.2491,-66.1386 5.2491,-34.6441 16.7971,-64.039 11.548,-29.395 32.5444,-47.2419 20.9964,-18.8968 54.5907,-18.8968 45.1422,0 65.0888,28.3451 20.9964,28.3452 26.2455,73.4874 5.2491,45.1423 4.1993,94.4838 54.5906,-1.0498 96.5834,4.1993 41.9928,5.2491 66.1387,23.0961 24.1458,17.8469 24.1458,56.6902 0,39.8932 -27.2953,59.8398 -27.2953,19.9466 -71.3877,27.2953 -44.0925,6.2989 -93.434,7.3487 0,19.9466 -1.0498,41.9928 0,20.9964 0,43.0426 0,59.8398 8.3985,85.0355 6.2989,18.8967 16.7971,24.1458 11.5481,5.2491 28.3452,6.2989 16.7971,0 40.943,6.299 24.1458,5.2491 37.7935,26.2455 13.6476,19.9465 13.6476,51.4411 0,35.6939 -37.7935,55.6405 -36.7437,19.9466 -99.7329,19.9466 z"
           id="text8"
           style="font-size:1049.82px;font-family:'Cherry Bomb One';-inkscape-font-specification:'Cherry Bomb One';fill:#000000;stroke:#ffffff;stroke-width:20.1889;fill-opacity:1"
           aria-label="deltabot" /><path
           d="m 5590.0891,4254.574 q -172.615,0 -314.341,-69.046 -141.726,-70.863 -225.308,-212.589 -83.582,-141.726 -83.582,-354.315 0,-125.373 43.608,-238.027 43.608,-114.471 121.739,-203.504 79.948,-89.033 187.151,-139.909 107.203,-50.876 236.21,-50.876 161.713,0 283.452,59.961 121.739,58.144 188.968,159.896 69.046,101.752 69.046,227.125 0,49.059 -19.987,94.484 -18.17,43.608 -58.144,72.68 -38.157,29.072 -99.935,29.072 -58.144,0 -92.667,-18.17 -32.706,-18.17 -56.327,-43.608 -21.804,-27.255 -45.425,-54.51 -23.621,-27.255 -58.144,-45.425 -34.523,-18.17 -94.484,-18.17 -56.327,0 -103.569,29.072 -47.242,29.072 -76.314,79.948 -27.255,49.059 -27.255,112.654 0,94.484 49.059,165.347 50.876,70.863 143.543,70.863 72.68,0 114.471,-21.804 43.608,-21.804 72.68,-49.059 30.889,-29.072 65.412,-50.876 36.34,-21.804 92.667,-21.804 79.948,0 119.922,52.693 41.791,52.693 34.523,129.007 -7.268,78.131 -69.046,148.994 -59.961,70.863 -163.53,116.288 -101.752,43.608 -234.393,43.608 z m 1102.9206,3.634 q -176.249,0 -307.073,-72.68 -129.007,-72.68 -170.798,-228.942 -18.17,-69.046 -23.621,-167.164 -3.634,-99.935 -3.634,-210.772 0,-109.02 9.085,-214.406 10.902,-105.386 39.974,-190.785 29.072,-85.399 87.216,-136.275 59.961,-50.876 158.079,-50.876 76.314,0 127.19,36.34 52.693,36.34 79.948,96.301 27.255,59.961 27.255,132.641 0,136.275 -25.438,292.537 -25.438,156.262 -50.876,294.354 58.144,-18.17 132.641,-27.255 76.314,-10.902 152.628,-7.268 78.131,1.817 143.543,25.438 65.412,21.804 105.386,69.046 39.974,45.425 39.974,119.922 0,89.033 -45.425,139.909 -45.425,49.059 -121.739,70.863 -76.314,19.987 -168.981,25.438 -92.667,3.634 -185.334,3.634 z m 950.289,-5.451 q -63.595,0 -129.007,-1.817 -65.412,-3.634 -119.922,-18.17 -54.51,-14.536 -89.033,-49.059 -32.706,-34.523 -32.706,-96.301 0,-79.948 54.51,-112.654 54.51,-34.523 132.641,-45.425 -5.451,-63.595 -7.268,-138.092 -1.817,-76.314 -1.817,-163.53 0,-79.948 1.817,-150.811 1.817,-72.68 5.451,-132.641 -92.667,-10.902 -159.896,-47.242 -65.412,-36.34 -65.412,-129.007 0,-69.046 36.34,-105.386 36.34,-38.157 96.301,-52.693 61.778,-16.353 132.641,-19.987 72.68,-3.634 143.543,-3.634 70.863,0 143.543,3.634 72.68,3.634 132.641,19.987 59.961,14.536 96.301,52.693 38.157,36.34 38.157,105.386 0,61.778 -30.889,98.118 -30.889,36.34 -83.582,54.51 -52.693,16.353 -114.471,23.621 5.451,59.961 7.268,130.824 1.817,70.863 1.817,152.628 0,87.216 -3.634,163.53 -1.817,74.497 -7.268,138.092 81.765,9.085 138.092,43.608 58.144,32.706 58.144,114.471 0,61.778 -34.523,96.301 -32.706,34.523 -89.033,49.059 -54.51,14.536 -119.922,18.17 -65.412,1.817 -130.824,1.817 z"
           id="text9"
           style="font-size:1817px;font-family:'Cherry Bomb One';-inkscape-font-specification:'Cherry Bomb One';fill:#000000;stroke:#ffffff;stroke-width:20.1889;fill-opacity:1"
           aria-label="CLI" /></g></g></g><defs
     id="defs60" /><path
     d="m 498.14048,608.84095 q -58.8,0 -97.3,-1.4 -37.8,-1.4 -56,-11.2 -18.2,-9.8 -18.2,-33.6 0,-24.5 18.2,-34.3 18.2,-9.1 56,-10.5 38.5,-1.4 97.3,-1.4 58.8,0 96.6,1.4 38.5,1.4 56.7,10.5 18.2,9.8 18.2,34.3 0,23.8 -18.2,33.6 -18.2,9.8 -56.7,11.2 -37.8,1.4 -96.6,1.4 z"
     id="text7"
     style="font-size:700px;font-family:'Cherry Bomb One';-inkscape-font-specification:'Cherry Bomb One';fill:#ffffff;stroke-width:1.00157"
     aria-label="_" /><path
     style="font-size:500px;font-family:'Cherry Bomb One';-inkscape-font-specification:'Cherry Bomb One';clip-rule:evenodd;fill:#ffffff;fill-rule:evenodd;stroke-width:0.786105;stroke-linejoin:round;stroke-miterlimit:2"
     d="m 144.30379,549.72044 q -16.23249,0 -26.48458,-12.94361 -10.2521,-12.9436 -10.2521,-29.37202 0,-11.45011 5.98039,-22.90022 6.40756,-11.45011 19.64985,-19.4154 27.76609,-16.42842 56.38653,-32.85684 28.62042,-16.92625 55.105,-32.359 -27.76609,-16.42843 -55.95934,-32.35901 -27.7661,-16.42842 -55.53219,-32.85684 -13.24229,-7.96529 -19.64985,-19.4154 -6.40756,-11.94795 -6.40756,-23.89588 0,-15.9306 9.82493,-28.37637 10.25209,-12.9436 27.33892,-12.9436 11.10643,0 26.0574,7.46746 15.37814,6.96964 30.75629,16.42842 15.80531,9.45879 26.91175,16.42842 34.60082,21.40673 58.09521,37.33732 23.49439,15.43275 35.45516,31.86117 11.96078,16.42842 11.96078,40.32431 0,23.39804 -11.96078,40.3243 -11.96077,16.42841 -35.45516,32.35901 -23.49439,15.43275 -58.09521,36.83948 -11.10644,6.96963 -26.91175,16.42842 -15.37815,9.45878 -30.75629,16.92625 -14.95097,6.96963 -26.0574,6.96963 z"
     id="text1-6"
     aria-label="&gt;" /></svg>
